<mxfile host="app.diagrams.net" modified="2023-04-16T20:20:04.701Z" agent="Mozilla/5.0 (Windows NT 10.0; Win64; x64; rv:109.0) Gecko/20100101 Firefox/112.0" etag="bmxU_k0OQr5VDMuQ3Z30" version="21.1.8" type="device">
  <diagram name="Page-1" id="0cceA9G2HCdwgPtXZ0yz">
    <mxGraphModel dx="1195" dy="652" grid="1" gridSize="10" guides="1" tooltips="1" connect="1" arrows="1" fold="1" page="1" pageScale="1" pageWidth="827" pageHeight="1169" math="0" shadow="0">
      <root>
        <mxCell id="0" />
        <mxCell id="1" parent="0" />
        <mxCell id="-yaByLVHZzD15Oa0z7b0-19" value="" style="rounded=1;whiteSpace=wrap;html=1;opacity=50;fillColor=#dae8fc;strokeColor=#6c8ebf;" vertex="1" parent="1">
          <mxGeometry x="315" y="90" width="110" height="120" as="geometry" />
        </mxCell>
        <mxCell id="-yaByLVHZzD15Oa0z7b0-18" value="" style="rounded=1;whiteSpace=wrap;html=1;opacity=50;fillColor=#dae8fc;strokeColor=#6c8ebf;" vertex="1" parent="1">
          <mxGeometry x="455" y="280" width="110" height="120" as="geometry" />
        </mxCell>
        <mxCell id="-yaByLVHZzD15Oa0z7b0-17" value="" style="rounded=1;whiteSpace=wrap;html=1;opacity=50;fillColor=#dae8fc;strokeColor=#6c8ebf;" vertex="1" parent="1">
          <mxGeometry x="80" y="230" width="280" height="240" as="geometry" />
        </mxCell>
        <mxCell id="-yaByLVHZzD15Oa0z7b0-1" value="Index.html" style="whiteSpace=wrap;html=1;aspect=fixed;fillColor=#f5f5f5;fontColor=#333333;strokeColor=#666666;" vertex="1" parent="1">
          <mxGeometry x="330" y="110" width="80" height="80" as="geometry" />
        </mxCell>
        <mxCell id="-yaByLVHZzD15Oa0z7b0-2" value="Index.ts" style="rounded=0;whiteSpace=wrap;html=1;fillColor=#f5f5f5;fontColor=#333333;strokeColor=#666666;" vertex="1" parent="1">
          <mxGeometry x="240" y="250" width="90" height="200" as="geometry" />
        </mxCell>
        <mxCell id="-yaByLVHZzD15Oa0z7b0-3" value="Model" style="rounded=0;whiteSpace=wrap;html=1;fillColor=#e1d5e7;strokeColor=#9673a6;" vertex="1" parent="1">
          <mxGeometry x="110" y="250" width="120" height="60" as="geometry" />
        </mxCell>
        <mxCell id="-yaByLVHZzD15Oa0z7b0-4" value="Loader" style="rounded=0;whiteSpace=wrap;html=1;fillColor=#e1d5e7;strokeColor=#9673a6;" vertex="1" parent="1">
          <mxGeometry x="110" y="320" width="120" height="60" as="geometry" />
        </mxCell>
        <mxCell id="-yaByLVHZzD15Oa0z7b0-5" value="Font" style="rounded=0;whiteSpace=wrap;html=1;fillColor=#e1d5e7;strokeColor=#9673a6;" vertex="1" parent="1">
          <mxGeometry x="110" y="390" width="120" height="60" as="geometry" />
        </mxCell>
        <mxCell id="-yaByLVHZzD15Oa0z7b0-7" value="Control" style="whiteSpace=wrap;html=1;aspect=fixed;fillColor=#e1d5e7;strokeColor=#9673a6;" vertex="1" parent="1">
          <mxGeometry x="470" y="300" width="80" height="80" as="geometry" />
        </mxCell>
        <mxCell id="-yaByLVHZzD15Oa0z7b0-11" value="" style="endArrow=classic;html=1;rounded=0;" edge="1" parent="1">
          <mxGeometry width="50" height="50" relative="1" as="geometry">
            <mxPoint x="430" y="160" as="sourcePoint" />
            <mxPoint x="510" y="290" as="targetPoint" />
          </mxGeometry>
        </mxCell>
        <mxCell id="-yaByLVHZzD15Oa0z7b0-12" value="Observor pattern detects changes" style="text;html=1;strokeColor=none;fillColor=none;align=center;verticalAlign=middle;whiteSpace=wrap;rounded=0;" vertex="1" parent="1">
          <mxGeometry x="480" y="200" width="60" height="30" as="geometry" />
        </mxCell>
        <mxCell id="-yaByLVHZzD15Oa0z7b0-13" value="" style="endArrow=classic;html=1;rounded=0;" edge="1" parent="1">
          <mxGeometry width="50" height="50" relative="1" as="geometry">
            <mxPoint x="460" y="340" as="sourcePoint" />
            <mxPoint x="340" y="340" as="targetPoint" />
          </mxGeometry>
        </mxCell>
        <mxCell id="-yaByLVHZzD15Oa0z7b0-14" value="&lt;div&gt;Update Rendered&lt;/div&gt;&lt;div&gt;Chart&lt;br&gt;&lt;/div&gt;" style="text;html=1;strokeColor=none;fillColor=none;align=center;verticalAlign=middle;whiteSpace=wrap;rounded=0;" vertex="1" parent="1">
          <mxGeometry x="200" y="150" width="60" height="30" as="geometry" />
        </mxCell>
        <mxCell id="-yaByLVHZzD15Oa0z7b0-15" value="" style="endArrow=classic;html=1;rounded=0;" edge="1" parent="1">
          <mxGeometry width="50" height="50" relative="1" as="geometry">
            <mxPoint x="210" y="240" as="sourcePoint" />
            <mxPoint x="310" y="140" as="targetPoint" />
          </mxGeometry>
        </mxCell>
        <mxCell id="-yaByLVHZzD15Oa0z7b0-16" value="Changes State of Chart" style="text;html=1;strokeColor=none;fillColor=none;align=center;verticalAlign=middle;whiteSpace=wrap;rounded=0;" vertex="1" parent="1">
          <mxGeometry x="370" y="350" width="60" height="30" as="geometry" />
        </mxCell>
        <mxCell id="-yaByLVHZzD15Oa0z7b0-21" value="&lt;font size=&quot;1&quot; color=&quot;#ea6b66&quot;&gt;&lt;b style=&quot;font-size: 15px;&quot;&gt;Controller&lt;/b&gt;&lt;/font&gt;" style="text;html=1;strokeColor=none;fillColor=none;align=center;verticalAlign=middle;whiteSpace=wrap;rounded=0;" vertex="1" parent="1">
          <mxGeometry x="480" y="400" width="60" height="30" as="geometry" />
        </mxCell>
        <mxCell id="-yaByLVHZzD15Oa0z7b0-24" value="&lt;font size=&quot;1&quot; color=&quot;#ea6b66&quot;&gt;&lt;b style=&quot;font-size: 15px;&quot;&gt;Model&lt;/b&gt;&lt;/font&gt;" style="text;html=1;strokeColor=none;fillColor=none;align=center;verticalAlign=middle;whiteSpace=wrap;rounded=0;" vertex="1" parent="1">
          <mxGeometry x="190" y="470" width="60" height="30" as="geometry" />
        </mxCell>
        <mxCell id="-yaByLVHZzD15Oa0z7b0-26" value="&lt;font size=&quot;1&quot; color=&quot;#ea6b66&quot;&gt;&lt;b style=&quot;font-size: 15px;&quot;&gt;View&lt;/b&gt;&lt;/font&gt;" style="text;html=1;strokeColor=none;fillColor=none;align=center;verticalAlign=middle;whiteSpace=wrap;rounded=0;" vertex="1" parent="1">
          <mxGeometry x="340" y="60" width="60" height="30" as="geometry" />
        </mxCell>
        <mxCell id="-yaByLVHZzD15Oa0z7b0-27" value="" style="endArrow=classic;html=1;rounded=0;dashed=1;opacity=50;" edge="1" parent="1">
          <mxGeometry width="50" height="50" relative="1" as="geometry">
            <mxPoint x="460" y="270" as="sourcePoint" />
            <mxPoint x="425" y="210" as="targetPoint" />
          </mxGeometry>
        </mxCell>
        <mxCell id="-yaByLVHZzD15Oa0z7b0-28" value="Direct Changes to some UI" style="text;html=1;strokeColor=none;fillColor=none;align=center;verticalAlign=middle;whiteSpace=wrap;rounded=0;" vertex="1" parent="1">
          <mxGeometry x="384" y="250" width="60" height="30" as="geometry" />
        </mxCell>
      </root>
    </mxGraphModel>
  </diagram>
</mxfile>
